<svg xmlns="http://www.w3.org/2000/svg" fill="none" viewBox="0 0 522 464"><g clip-path="url(#a)"><path fill="#48821a" d="M135.892 28.057A17.41 17.41 0 0 1 152.46 16h212.659a17.41 17.41 0 0 1 16.672 12.39l124.452 413.177c3.366 11.175-5.001 22.433-16.672 22.433H18.926c-11.818 0-20.202-11.522-16.568-22.766z"></path><path stroke="#fff" stroke-opacity=".68" stroke-width="2.176" d="M152.805 62.375a3.73 3.73 0 0 1 3.562-2.63H361.15a3.73 3.73 0 0 1 3.58 2.69l83.89 289.986c.689 2.383-1.099 4.762-3.58 4.762H67.173c-2.508 0-4.3-2.426-3.562-4.822z"></path><path stroke="#fff" stroke-opacity=".68" stroke-width="2.176" d="M425.767 357.119c0-9.878 8.178-17.887 18.265-17.887M86.956 356.676c0-9.878-8.194-18.484-18.281-18.484"></path><path stroke="#fff" stroke-opacity=".68" stroke-width="1.242" d="M354.118 59.044c0 4.596 5.302 7.618 12.514 7.618m-202.955-7.618c0 4.596-5.36 7.907-11.971 7.907"></path><path stroke="#fff" stroke-linecap="square" stroke-opacity=".68" stroke-width="1.242" d="M256.177 189.702c22.237 0 40.265-11.643 40.265-26.006s-18.028-26.007-40.265-26.007-40.265 11.644-40.265 26.007 18.027 26.006 40.265 26.006ZM121.489 163.175h271.627"></path><path stroke="#fff" stroke-opacity=".68" stroke-width="1.242" d="m205.943 59.588-3.09 30.285c0 .51.469.923 1.045.923h105.646c.577 0 1.044-.412 1.044-.923l-3.089-30.285"></path><path stroke="#fff" stroke-opacity=".68" stroke-width="1.242" d="m231.124 60.132-1.065 13.836c0 .676.477 1.224 1.065 1.224h51.193c.589 0 1.066-.55 1.066-1.224l-.545-14.38m-7.073 31.208c-5.406 5.86-12.251 9.362-19.696 9.362-7.347 0-14.109-3.41-19.481-9.13"></path><path stroke="#fff" stroke-opacity=".68" stroke-width="2.176" d="m169.118 356.677 9.903-69.228c0-1.155.435-2.091 1.657-2.091h148.821c.915 0 1.657.934 1.657 2.091l8.815 69.228"></path><path stroke="#fff" stroke-opacity=".68" stroke-width="2.176" d="m210.471 356.676 2.636-32.529c0-1.479.786-2.678 1.754-2.678h79.741c.969 0 1.754 1.204 1.754 2.678l3.35 32.529M291 285.097c-10.251-10.683-14.51-16.384-35.028-16.384-19.529 0-24.432 6.216-34.619 16.645"></path><mask id="c" width="511" height="448" x="-2" y="16" maskUnits="userSpaceOnUse" style="mask-type:alpha"><path fill="#619363" d="M136.568 27.588C138.793 20.689 145.32 16 152.698 16h212.704c7.5 0 14.105 4.844 16.225 11.9l124.672 414.819c3.194 10.628-4.928 21.281-16.226 21.281H18.928C7.492 464-.649 453.101 2.8 442.407z"></path><path fill="url(#b)" fill-opacity=".3" d="M134.167 27.588C136.418 20.689 143.023 16 150.488 16h215.231c7.59 0 14.273 4.844 16.419 11.9l126.153 414.819c3.231 10.628-4.987 21.281-16.419 21.281H15.129c-11.572 0-19.81-10.899-16.32-21.593z"></path></mask><g fill="#000" fill-opacity=".06" mask="url(#c)"><path d="M510.326 16H16.909C10.884 16 6 20.884 6 26.909s4.884 10.909 10.909 10.909h493.417c6.025 0 10.909-4.884 10.909-10.909S516.351 16 510.326 16M508.144 55.273H19.091C11.86 55.273 6 61.133 6 68.363s5.86 13.091 13.09 13.091h489.054c7.23 0 13.091-5.86 13.091-13.09s-5.861-13.092-13.091-13.092M508.144 99.999H19.091C11.86 99.999 6 105.86 6 113.09s5.86 13.09 13.09 13.09h489.054c7.23 0 13.091-5.86 13.091-13.09s-5.861-13.091-13.091-13.091M507.053 147.999H20.182C12.349 147.999 6 154.348 6 162.181c0 7.832 6.35 14.181 14.182 14.181h486.871c7.833 0 14.182-6.349 14.182-14.181 0-7.833-6.349-14.182-14.182-14.182M505.962 204.725H21.272C12.839 204.725 6 211.563 6 219.998s6.838 15.272 15.273 15.272h484.689c8.435 0 15.273-6.838 15.273-15.272s-6.838-15.273-15.273-15.273M503.823 275.633H23.412C13.796 275.633 6 283.429 6 293.045v4.448c0 9.617 7.796 17.412 17.412 17.412h480.411c9.616 0 17.412-7.795 17.412-17.412v-4.448c0-9.616-7.796-17.412-17.412-17.412M490.588 357H17.412C7.796 357 0 364.796 0 374.412v72.176C0 456.204 7.796 464 17.412 464h473.176c9.616 0 17.412-7.796 17.412-17.412v-72.176c0-9.616-7.796-17.412-17.412-17.412"></path></g></g><defs><radialGradient id="b" cx="0" cy="0" r="1" gradientTransform="matrix(4.22331 342.818 -374.16 4.33015 247.523 225.258)" gradientUnits="userSpaceOnUse"><stop stop-color="#fff" stop-opacity=".01"></stop><stop offset="1"></stop></radialGradient><clipPath id="a"><path fill="#fff" d="M0 0h522v464H0z"></path></clipPath></defs></svg>